<svg xmlns="http://www.w3.org/2000/svg" width="273.101" height="25.531" viewBox="0 0 273.101 25.531">
  <path id="Path_39972" data-name="Path 39972" d="M16.11,31.811a3.522,3.522,0,0,1-3.879,3.234H7v-6.72l4.75-.114c2.616,0,4.383,1.377,4.383,3.486v.115Zm-.735-10.228a3.217,3.217,0,0,1-3.511,2.867H7V18.487h4.5c2.249,0,3.878,1.239,3.878,2.867Zm1.606,4.495c2.5-1.239,3.259-2.5,3.259-4.976a6.465,6.465,0,0,0-3.74-5.986c-1.263-.5-2.754-.619-7-.619H0v3.99H1.882V35.068H0v3.99H13.127c4.75,0,8.009-2.729,8.009-6.857a5.964,5.964,0,0,0-4.154-6.124m11.5,1.193a4.337,4.337,0,0,1,4.154-3.578h.114a3.7,3.7,0,0,1,3.672,3.692ZM28.227,30.6H41.446a12.531,12.531,0,0,0-1.836-6.9A8.378,8.378,0,0,0,32.5,19.863c-5.141,0-8.927,4.082-8.927,9.747s3.786,9.747,8.927,9.747c4.406,0,7.711-2.476,8.56-6.536l-4.659.114a3.8,3.8,0,0,1-3.787,2.706c-.826.023-3.878-.23-4.383-5.046m34.584,8.44h2.73V26.675l-8.56-.023v.023l-.115,2.27H62.7a10.631,10.631,0,0,1-.115,1.9,7.142,7.142,0,0,1-6.7,5.8c-4.222,0-7.435-4.312-7.435-10.228,0-7.523,4.451-10.114,7.435-10.114a7.225,7.225,0,0,1,5.209,2.706,7.825,7.825,0,0,1,1.354,2.935h2.731V14.5H62.581v3.555a8.133,8.133,0,0,0-7.32-4.2c-5.577,0-10.052,5.665-10.052,12.821s4.452,12.682,10.166,12.682a8.725,8.725,0,0,0,5.576-2.087,11.025,11.025,0,0,0,1.86-2.293ZM80.8,32.454A5.728,5.728,0,0,1,75.3,37.247a3.811,3.811,0,0,1-3.879-3.555c0-2.338,1.882-3.3,7.642-4.059l1.744-.252Zm0,6.582h5.37l-.252-2.271H83.3V26.583c0-4.656-3.259-6.376-7.137-6.376a8.009,8.009,0,0,0-5,1.606,6.445,6.445,0,0,0-2.134,3.762H71.9c.5-2.455,1.881-3.28,4.5-3.28,2.639,0,4.245,1.353,4.245,3.44v1.835l-1.743.115c-7.5.734-10.626,2.454-10.626,6.008v.367A5.786,5.786,0,0,0,74.4,39.334a7.229,7.229,0,0,0,6.379-3.716v3.417Zm30.8,0h5.186V36.765h-2.593V24.931c0-3.21-1.606-5.068-4.429-5.068a6,6,0,0,0-3.947,1.606,10.4,10.4,0,0,0-1.721,2.339c-.482-2.592-1.836-3.968-4.314-3.968-3.443,0-5.049,2.73-5.921,3.968l-.115-3.624H88.33v2.271h2.708v14.31H88.33v2.271h8.009V36.765H93.631V27.523c0-1.72,2.089-5.32,4.934-5.32,1.86,0,2.708.986,2.708,3.348V39.036h5.417V36.765h-2.731V27.294c0-1.353,1.721-5.206,4.934-5.206,1.835,0,2.708,1.238,2.708,3.829Zm24-9.494c0,4.587-1.974,7.43-5.163,7.43a5.783,5.783,0,0,1-5.279-5.8l-.114-3.211c0-2.729,2.708-5.687,5.416-5.687,3.052-.023,5.141,2.706,5.141,7.27m2.96.389c0-5.435-3.19-9.747-7.39-9.747-3.189,0-5.3,2.684-6.035,4.037V13.854h-5.163v2.271h2.455v20.64h-2.593v2.271h5.3V35.618c1.1,1.491,2.708,3.738,6.035,3.738,3.947,0,7.39-4.358,7.39-9.426m1.446,9.1h7.963V36.765h-2.479V13.854h-5.346v2.11h2.616v20.8h-2.731v2.271Zm13.173-10.871a10,10,0,0,1,.367-1.835,5.426,5.426,0,0,1,4.934-3.945,4.277,4.277,0,0,1,3.1,1.1,6.806,6.806,0,0,1,1.859,4.679Zm-.114,2.087h13.471c0-6.513-3.695-10.09-8.285-10.09-4.567,0-8.146,4.174-8.146,9.586,0,5.664,3.58,9.586,8.651,9.586a7.694,7.694,0,0,0,5.921-2.706,6.47,6.47,0,0,0,1.491-2.821l-3.075.114c-.987,2.225-2.341,3.188-4.452,3.188a5.272,5.272,0,0,1-3.465-1.353c-1.239-1.193-1.859-2.8-2.111-5.5m30.752-.275h-6.427l3.213-10.917Zm2.845,9.059h5.553v-3.9h-1.86l-6.77-20.64h-5.921l-6.677,20.64h-1.859v3.9h5.691l1.607-5.32h8.65Zm31.14-15.274h1.607V20.184H212v3.578h1.86L211.38,34.77,208.3,20.184h-4.818l-3.1,14.838-2.57-11.26h1.836V20.184h-7.414v3.578h1.607l4.062,15.274h4.934l2.96-13.072,3.1,13.072h4.935Zm14.826,8.348a4.184,4.184,0,0,1-4.2,3.945c-1.86,0-3.1-.986-3.1-2.454,0-2.592,2.847-2.959,7.161-3.326h.115V32.11Zm.136,6.926h5.807v-3.6h-1.606l.115-8.738c0-4.174-2.731-6.513-7.918-6.513-4.452,0-7.412,2.339-7.665,6.032l4.452.114v-.114c.115-1.72.987-2.821,3.328-2.821s3.328.871,3.328,3.692c-5.946.481-12.118,1.1-12.118,6.513,0,3.325,2.847,5.779,6.562,5.779a7.173,7.173,0,0,0,5.692-2.569v2.225Zm19.208-14.792a11.99,11.99,0,0,1,2.2.252v-4.38a12.917,12.917,0,0,0-2.089-.252c-2.089,0-3.442,1.009-4.659,3.394V20.184h-6.265v3.692H243V35.435h-1.836v3.6h8.583v-3.6h-2.2V28.142a4.184,4.184,0,0,1,4.429-3.9m8.032,3.027a4.338,4.338,0,0,1,4.155-3.578h.115a3.7,3.7,0,0,1,3.672,3.692Zm-.136,3.326h13.218a12.537,12.537,0,0,0-1.834-6.9,8.384,8.384,0,0,0-7.115-3.829c-5.14,0-8.949,4.082-8.949,9.747s3.785,9.747,8.949,9.747c4.406,0,7.71-2.476,8.559-6.536l-4.659.114a3.8,3.8,0,0,1-3.787,2.706c-.825.023-3.878-.23-4.382-5.046" transform="translate(0 -13.849)" fill="#ededed"/>
</svg>
