<svg xmlns="http://www.w3.org/2000/svg" xmlns:xlink="http://www.w3.org/1999/xlink" width="162.052" height="36.601" viewBox="0 0 162.052 36.601">
  <defs>
    <clipPath id="clip-path">
      <path id="Path_39965" data-name="Path 39965" d="M662.894,43.778c-.069,0-.114,0-.136.069l-1,1.934-1.024-1.934a.138.138,0,0,0-.136-.069h-.705c-.091,0-.114.046-.068.115l1.478,2.639v1.842a.083.083,0,0,0,.091.091h.638c.068,0,.09-.023.09-.091V46.508l1.479-2.615c.023-.046,0-.115-.046-.115Z" transform="translate(-659.8 -43.778)" fill="none"/>
    </clipPath>
    <linearGradient id="linear-gradient" x1="-91.233" y1="2.161" x2="-91.094" y2="2.161" gradientUnits="objectBoundingBox">
      <stop offset="0" stop-color="#bfbfbf"/>
      <stop offset="0.05" stop-color="#bfbfbf"/>
      <stop offset="0.084" stop-color="#b7b7b7"/>
      <stop offset="0.365" stop-color="#7d7d7d"/>
      <stop offset="0.5" stop-color="#666"/>
      <stop offset="0.615" stop-color="#787878"/>
      <stop offset="0.845" stop-color="#a7a7a7"/>
      <stop offset="0.95" stop-color="#bfbfbf"/>
      <stop offset="1" stop-color="#bfbfbf"/>
    </linearGradient>
    <clipPath id="clip-path-2">
      <path id="Path_39966" data-name="Path 39966" d="M665.253,43.778c-.068,0-.091.023-.091.091V48.4c0,.068.023.09.091.09h2.593c.069,0,.091-.023.091-.09v-.569c0-.068-.023-.091-.091-.091h-1.865v-1.3h1.661c.068,0,.09-.023.09-.091v-.524c0-.069-.023-.091-.09-.091h-1.661V44.529h1.842c.069,0,.091-.023.091-.091v-.569a.084.084,0,0,0-.091-.091Z" transform="translate(-665.162 -43.778)" fill="none"/>
    </clipPath>
    <linearGradient id="linear-gradient-2" x1="-104.818" y1="2.38" x2="-104.661" y2="2.38" xlink:href="#linear-gradient"/>
    <clipPath id="clip-path-3">
      <path id="Path_39967" data-name="Path 39967" d="M670.649,45.981c.137-.455.3-.979.387-1.387h.023c.09.409.227.954.364,1.387l.175.546H670.49Zm-.045-2.23a.115.115,0,0,0-.114.091l-1.41,4.5c-.023.068,0,.113.068.113h.614a.116.116,0,0,0,.114-.091l.341-1.091h1.593l.34,1.091c.023.069.046.091.115.091h.682c.046,0,.068-.045.046-.113l-1.433-4.5a.124.124,0,0,0-.136-.091Z" transform="translate(-669.071 -43.751)" fill="none"/>
    </clipPath>
    <linearGradient id="linear-gradient-3" x1="-91.074" y1="2.118" x2="-90.938" y2="2.118" xlink:href="#linear-gradient"/>
    <clipPath id="clip-path-4">
      <path id="Path_39968" data-name="Path 39968" d="M675.421,44.52h.75c.547,0,.751.25.751.683v.114c0,.431-.227.682-.751.682h-.75Zm-.751-.8c-.068,0-.091.023-.091.091v4.527c0,.068.023.09.091.09h.637c.068,0,.091-.023.091-.09V46.681h.659l.91,1.683c.045.069.068.091.136.091h.705c.091,0,.091-.045.045-.159l-.978-1.752a1.248,1.248,0,0,0,.842-1.274v-.159a1.325,1.325,0,0,0-1.5-1.388Z" transform="translate(-674.579 -43.724)" fill="none"/>
    </clipPath>
    <linearGradient id="linear-gradient-4" x1="-98.805" y1="2.231" x2="-98.659" y2="2.231" xlink:href="#linear-gradient"/>
    <clipPath id="clip-path-5">
      <path id="Path_39969" data-name="Path 39969" d="M679.346,44.935c0,.7.386,1.092,1.364,1.456.75.272.933.432.933.774,0,.363-.318.591-.8.591a.784.784,0,0,1-.887-.614c-.023-.068-.046-.091-.137-.068l-.523.182a.1.1,0,0,0-.068.136,1.481,1.481,0,0,0,1.615,1.114,1.457,1.457,0,0,0,1.615-1.387c0-.659-.364-1.069-1.228-1.388-.865-.3-1.069-.454-1.069-.773,0-.364.272-.568.727-.568a.768.768,0,0,1,.8.523.1.1,0,0,0,.136.068l.5-.182a.1.1,0,0,0,.068-.136,1.6,1.6,0,0,0-1.5-1.046,1.4,1.4,0,0,0-1.546,1.32" transform="translate(-679.224 -43.615)" fill="none"/>
    </clipPath>
    <linearGradient id="linear-gradient-5" x1="-98.37" y1="2.204" x2="-98.225" y2="2.204" xlink:href="#linear-gradient"/>
    <clipPath id="clip-path-6">
      <path id="Path_39970" data-name="Path 39970" d="M656.93,23.206c-.068.3.023.523.273.592l2.389.7a.38.38,0,0,0,.546-.3,2.319,2.319,0,0,1,2.321-2.025,1.99,1.99,0,0,1,2.16,2.094c.023,1.25-.659,2.114-3.048,4.207l-4.55,4.027a.789.789,0,0,0-.136.637l.432,2.229c.046.228.182.319.433.319h10.213a.319.319,0,0,0,.364-.342v-2.57a.319.319,0,0,0-.364-.342h-6.347l2.821-2.3c2.366-1.933,3.753-3.5,3.731-6.1-.023-2.98-2.093-5.1-5.619-5.118a5.274,5.274,0,0,0-5.619,4.277" transform="translate(-656.867 -18.929)" fill="none"/>
    </clipPath>
    <linearGradient id="linear-gradient-6" x1="-27.266" y1="1.726" x2="-27.224" y2="1.726" xlink:href="#linear-gradient"/>
    <clipPath id="clip-path-7">
      <path id="Path_39971" data-name="Path 39971" d="M682.663,19.31h-9.371c-.228,0-.41.091-.387.364v8.007c0,.364.136.433.387.547l2.07.933c.272.136.386.113.591-.137A2.442,2.442,0,0,1,678.069,28a2.046,2.046,0,0,1,2.274,2.184v.477a2.121,2.121,0,0,1-2.411,2.3,2.5,2.5,0,0,1-2.547-1.524c-.16-.273-.318-.341-.592-.227l-2.184.8a.357.357,0,0,0-.3.523c.546,1.751,2.184,3.548,5.619,3.548,3.8,0,5.8-2.228,5.8-5.231V30A4.626,4.626,0,0,0,679,25.042a4.185,4.185,0,0,0-3.025,1.07l-.091-.023V22.382h6.756c.182,0,.3-.115.3-.343V19.605c0-.168-.1-.3-.24-.3l-.034,0" transform="translate(-672.279 -19.307)" fill="none"/>
    </clipPath>
    <linearGradient id="linear-gradient-7" x1="-27.884" y1="1.7" x2="-27.843" y2="1.7" xlink:href="#linear-gradient"/>
  </defs>
  <g id="Group_6196" data-name="Group 6196" transform="translate(-713.271 -4733.54)">
    <path id="Path_39963" data-name="Path 39963" d="M546.953,23.1a.424.424,0,0,1-.273.592l-2.434.727c-.3.091-.455,0-.546-.3a2.5,2.5,0,0,0-2.685-1.911c-2.3,0-3.071,1.342-3.071,3.163v4.186c0,1.819.773,3.162,3.071,3.162,1.888,0,2.889-.888,2.889-2.8v-.546H541.38a.318.318,0,0,1-.341-.364v-2.32a.329.329,0,0,1,.341-.364h5.5a.318.318,0,0,1,.364.341v3.5c0,3.3-2.434,5.8-6.21,5.8-4.481,0-6.574-2.662-6.574-6.3V25.259c0-3.64,2.093-6.3,6.574-6.3a5.692,5.692,0,0,1,5.914,4.14m12.329,4.14v8.121a.322.322,0,0,1-.341.341h-2.48a.329.329,0,0,1-.364-.341v-1.32a3.932,3.932,0,0,1-3.412,1.911,3.589,3.589,0,0,1-3.845-3.822c0-2.252,1.411-3.594,4.891-3.845a15,15,0,0,1,2.252-.023v-.909a1.491,1.491,0,0,0-1.706-1.684,1.566,1.566,0,0,0-1.706,1.137c-.114.273-.2.318-.455.251l-2.479-.637c-.251-.069-.273-.2-.228-.387.342-1.774,2.025-3.094,5-3.094,3.117.023,4.868,1.5,4.868,4.3m-3.321,4.254v-1.16a14,14,0,0,0-1.979.069c-1.251.159-1.933.546-1.933,1.5,0,.887.591,1.342,1.546,1.342a2.4,2.4,0,0,0,2.366-1.752m12.261-8.53a3.176,3.176,0,0,1,3.094,2.252,4.372,4.372,0,0,1,3.616-2.252c2.184,0,3.412,1.728,3.412,4.322v8.075a.369.369,0,0,1-.409.341h-2.593a.369.369,0,0,1-.41-.341V27.875c0-1.115-.5-1.8-1.365-1.8-.933,0-1.592.774-1.933,1.934v7.347a.317.317,0,0,1-.318.341h-2.8c-.2,0-.3-.136-.3-.341V27.875c0-1.115-.5-1.8-1.365-1.8-.955,0-1.615.819-1.933,1.957v7.325a.311.311,0,0,1-.342.341H561.83a.311.311,0,0,1-.341-.341V23.552a.317.317,0,0,1,.341-.318h2.638a.317.317,0,0,1,.342.318v1.411a4.224,4.224,0,0,1,3.412-2m24.271.272c.069.3-.023.523-.3.592l-2.389.705a.387.387,0,0,1-.546-.3,2.441,2.441,0,0,0-2.593-2.025c-2.047,0-2.706,1.342-2.706,3.163v4.186c0,1.819.751,3.162,2.706,3.162a2.515,2.515,0,0,0,2.707-2.229.371.371,0,0,1,.546-.3l2.389.773a.441.441,0,0,1,.3.592c-.568,2.434-2.32,4.413-5.96,4.413-4.094,0-6.165-2.662-6.165-6.3V25.259c0-3.64,2.116-6.3,6.165-6.3,3.549,0,5.232,1.888,5.846,4.277m11.988,4v8.121a.323.323,0,0,1-.342.341h-2.479a.329.329,0,0,1-.364-.341v-1.32a3.932,3.932,0,0,1-3.412,1.911,3.589,3.589,0,0,1-3.845-3.822c0-2.252,1.41-3.594,4.891-3.845a15,15,0,0,1,2.252-.023v-.909a1.491,1.491,0,0,0-1.706-1.684A1.567,1.567,0,0,0,597.77,26.8c-.114.273-.2.318-.455.251l-2.48-.637c-.25-.069-.272-.2-.227-.387.341-1.774,2.025-3.094,5-3.094,3.117.023,4.868,1.5,4.868,4.3m-3.321,4.254v-1.16a14,14,0,0,0-1.979.069c-1.251.159-1.934.546-1.934,1.5,0,.887.592,1.342,1.547,1.342a2.4,2.4,0,0,0,2.366-1.752m12.943-8.03v2.411c0,.3-.114.41-.409.41h-.364c-1.8,0-2.866.819-3.208,2.161v6.938a.314.314,0,0,1-.295.342h-2.844a.314.314,0,0,1-.295-.342V23.575a.305.305,0,0,1,.341-.318H609.6c.272,0,.341.182.341.364v1.661a3.924,3.924,0,0,1,3.616-2.184c.455-.023.547.045.547.364m4.435,7.03v.477a2.036,2.036,0,0,0,2.275,2.229,2.259,2.259,0,0,0,2.388-1.319c.2-.341.3-.387.66-.227l1.774.909c.364.182.386.364.227.705-.774,1.729-2.684,2.73-5.073,2.73-3.594,0-5.482-2.138-5.482-5.072V28.033c0-2.843,1.774-5.072,5.459-5.072,3.5,0,5.232,2.229,5.232,5v1.979c0,.342-.114.569-.591.569h-6.87Zm0-2.616v.432h4.344v-.432a2.172,2.172,0,0,0-4.344,0m-80.5,12.875a.1.1,0,0,1-.069.136l-.546.159a.1.1,0,0,1-.136-.068.805.805,0,0,0-.865-.614.883.883,0,0,0-.978,1v1.32a.875.875,0,0,0,.978,1c.592,0,.91-.273.91-.865V42.5h-.8a.083.083,0,0,1-.091-.091v-.523c0-.068.023-.09.091-.09h1.478c.068,0,.114.023.114.09v1a1.569,1.569,0,0,1-1.707,1.57,1.611,1.611,0,0,1-1.8-1.729v-1.41a1.611,1.611,0,0,1,1.8-1.729,1.643,1.643,0,0,1,1.616,1.161m3.64,1.205v2.366c0,.068-.023.09-.091.09h-.569c-.068,0-.091-.023-.091-.09v-.41a1.146,1.146,0,0,1-1.023.568,1.021,1.021,0,0,1-1.092-1.069c0-.637.432-1.024,1.342-1.069a3.923,3.923,0,0,1,.728,0v-.318a.522.522,0,0,0-.592-.569.528.528,0,0,0-.591.387c-.023.069-.046.091-.114.069l-.569-.137c-.068-.023-.068-.045-.068-.114.114-.5.568-.842,1.365-.842C541.175,40.795,541.676,41.182,541.676,41.955Zm-.774,1.3v-.432a6.209,6.209,0,0,0-.659.023c-.41.045-.659.181-.659.523,0,.3.2.477.546.477a.872.872,0,0,0,.773-.592m3.412-2.456a.849.849,0,0,1,.864.637,1.221,1.221,0,0,1,1.024-.637c.614,0,.955.455.955,1.16v2.366c0,.068-.045.091-.114.091h-.592c-.068,0-.114-.023-.114-.091V42.114c0-.364-.159-.592-.455-.592s-.523.227-.659.592v2.206c0,.068-.023.091-.091.091H544.5c-.068,0-.091-.023-.091-.091V42.114c0-.364-.16-.592-.455-.592-.318,0-.546.273-.659.614v2.184c0,.068-.023.091-.091.091h-.614c-.068,0-.091-.023-.091-.091V40.954a.083.083,0,0,1,.091-.09h.592a.083.083,0,0,1,.091.09v.433A1.383,1.383,0,0,1,544.314,40.795Zm4.573-1.206v1.729a1.114,1.114,0,0,1,1-.523,1.23,1.23,0,0,1,1.206,1.365v.955a1.223,1.223,0,0,1-1.229,1.365,1.144,1.144,0,0,1-1-.523v.364a.084.084,0,0,1-.091.091h-.591c-.069,0-.091-.023-.091-.091V39.589a.083.083,0,0,1,.091-.09h.637A.1.1,0,0,1,548.887,39.589Zm0,2.684V43a.7.7,0,0,0,.728.773c.455,0,.682-.272.682-.773v-.728c0-.5-.227-.8-.682-.8a.738.738,0,0,0-.728.8m3.821-2.684V44.3c0,.069-.023.091-.091.091H552c-.068,0-.091-.023-.091-.091V39.589c0-.068.023-.09.091-.09h.614c.069,0,.091.023.091.09m1.706.023v.614a.107.107,0,0,1-.114.114h-.568c-.091,0-.114-.046-.114-.114v-.614a.107.107,0,0,1,.114-.114h.568a.107.107,0,0,1,.114.114m0,1.341v3.367c0,.068-.022.091-.09.091h-.614c-.069,0-.091-.023-.091-.091V40.954c0-.068.023-.09.091-.09h.614A.083.083,0,0,1,554.414,40.954Zm1.683,1.161V44.3c0,.069-.023.091-.09.091h-.614c-.068,0-.091-.023-.091-.091V40.931a.084.084,0,0,1,.091-.091h.591a.083.083,0,0,1,.091.091v.432a1.286,1.286,0,0,1,1.069-.591c.683,0,1.046.477,1.046,1.205V44.3c0,.069-.023.091-.09.091h-.614c-.069,0-.091-.023-.091-.091V42.114c0-.387-.182-.614-.546-.614a.838.838,0,0,0-.751.614m5.937,2.525c0,.591-.455,1.114-1.661,1.114-1.092,0-1.524-.386-1.524-.955a.783.783,0,0,1,.546-.728.662.662,0,0,1-.25-.477.55.55,0,0,1,.364-.523,1.093,1.093,0,0,1-.546-1c0-.705.432-1.229,1.387-1.229h1.592c.046,0,.069.046.069.091v.455a.083.083,0,0,1-.091.09h-.568a.92.92,0,0,1,.318.728c0,.614-.432,1.07-1.32,1.07h-.227c-.2,0-.3.091-.3.2s.091.2.3.2h.728C561.693,43.684,562.034,44.093,562.034,44.639Zm-.751.068c0-.2-.114-.41-.523-.41h-.637c-.387,0-.523.2-.523.41,0,.3.227.478.842.478s.842-.182.842-.478m-1.615-2.639a.592.592,0,0,0,.659.637.637.637,0,0,0,0-1.274.615.615,0,0,0-.659.637m7.779-1.456a.1.1,0,0,1-.069.137l-.5.181a.1.1,0,0,1-.136-.068.75.75,0,0,0-.8-.523c-.455,0-.728.2-.728.568,0,.318.2.478,1.069.773.864.318,1.229.728,1.229,1.388a1.458,1.458,0,0,1-1.616,1.387,1.482,1.482,0,0,1-1.615-1.115.1.1,0,0,1,.068-.136l.523-.182c.091-.023.114,0,.137.069a.785.785,0,0,0,.887.614c.478,0,.8-.227.8-.592,0-.341-.182-.5-.933-.773-.979-.364-1.365-.751-1.365-1.456a1.4,1.4,0,0,1,1.547-1.32A1.623,1.623,0,0,1,567.448,40.613Zm.819,2.639v-2.32a.084.084,0,0,1,.091-.091h.613c.069,0,.091.023.091.091v2.184c0,.387.182.614.547.614a.838.838,0,0,0,.75-.614V40.931c0-.068.023-.091.091-.091h.613c.068,0,.091.023.091.091V44.3a.083.083,0,0,1-.091.091h-.591a.083.083,0,0,1-.091-.091v-.432a1.318,1.318,0,0,1-1.069.592c-.683,0-1.046-.478-1.046-1.206m3.867,2.435a.084.084,0,0,1-.091-.091V40.931a.083.083,0,0,1,.091-.091h.591a.084.084,0,0,1,.091.091V41.3a1.143,1.143,0,0,1,1-.523,1.21,1.21,0,0,1,1.228,1.365v.955a1.218,1.218,0,0,1-1.205,1.365,1.117,1.117,0,0,1-1-.523v1.661a.083.083,0,0,1-.09.091Zm2.138-2.707v-.728c0-.5-.227-.774-.682-.774a.706.706,0,0,0-.728.774v.728a.724.724,0,0,0,.728.8c.455,0,.682-.3.682-.8m1.706,2.707a.083.083,0,0,1-.09-.091V40.931a.083.083,0,0,1,.09-.091h.592a.084.084,0,0,1,.091.091V41.3a1.143,1.143,0,0,1,1-.523,1.21,1.21,0,0,1,1.229,1.365v.955a1.218,1.218,0,0,1-1.205,1.365,1.116,1.116,0,0,1-1-.523v1.661a.083.083,0,0,1-.091.091Zm2.139-2.707v-.728c0-.5-.227-.774-.683-.774a.706.706,0,0,0-.728.774v.728a.724.724,0,0,0,.728.8c.432,0,.683-.3.683-.8m4.526-.774v.842a1.5,1.5,0,0,1-3,.023v-.842a1.5,1.5,0,0,1,3-.023Zm-2.206.046v.773c0,.478.227.751.705.751s.7-.272.7-.751v-.773c0-.478-.227-.774-.7-.774s-.705.3-.705.774m4.982-1.342v.568c0,.069-.023.091-.115.091h-.09a.935.935,0,0,0-.956.66v2.093c0,.068-.045.091-.068.091h-.637a.084.084,0,0,1-.091-.091V40.954a.083.083,0,0,1,.091-.09h.591a.083.083,0,0,1,.091.09v.5a1.2,1.2,0,0,1,1.069-.637C585.4,40.817,585.419,40.817,585.419,40.908Zm1.819-.842v.819h.705a.083.083,0,0,1,.091.091v.455c0,.069-.023.091-.091.091h-.705V43.3c0,.25.136.387.432.387h.273c.068,0,.091.023.091.09V44.3c0,.069-.023.091-.091.091h-.387c-.728,0-1.069-.386-1.069-.978V41.523h-.432c-.068,0-.091-.023-.091-.091v-.455c0-.069.023-.091.091-.091h.455v-.819a.083.083,0,0,1,.091-.091h.591c.023,0,.046.046.046.091m6.323.568c.023.069,0,.114-.091.137l-.613.227c-.069.023-.114,0-.16-.069a.683.683,0,0,0-.705-.432c-.386,0-.637.182-.637.455s.182.387,1.046.683c.842.3,1.206.705,1.206,1.387a1.522,1.522,0,0,1-1.707,1.433,1.562,1.562,0,0,1-1.683-1.137.1.1,0,0,1,.068-.136l.659-.227c.091-.023.137,0,.16.09.091.364.341.523.8.523.409,0,.683-.181.683-.477,0-.273-.182-.387-.864-.637-1-.364-1.388-.751-1.388-1.5a1.484,1.484,0,0,1,1.616-1.365,1.6,1.6,0,0,1,1.615,1.046m2.025-.546v.774h.659c.068,0,.114.023.114.114v.568a.107.107,0,0,1-.114.114h-.659v1.57c0,.2.114.318.364.318h.3c.068,0,.114.023.114.091V44.3c0,.069-.045.091-.114.091h-.455c-.8,0-1.16-.432-1.16-1.046V41.636h-.409c-.069,0-.114-.023-.114-.114v-.569a.108.108,0,0,1,.114-.114h.432v-.773c0-.069.023-.091.091-.091h.75C595.541,40,595.587,40.022,595.587,40.089Zm4.3,1.888V44.3a.083.083,0,0,1-.091.091h-.705a.1.1,0,0,1-.114-.091v-.386a1.1,1.1,0,0,1-.978.546,1.027,1.027,0,0,1-1.092-1.092c0-.638.409-1.024,1.388-1.092a3,3,0,0,1,.637,0v-.25a.422.422,0,0,0-.478-.478.428.428,0,0,0-.478.318.1.1,0,0,1-.136.069l-.705-.182c-.068-.023-.068-.069-.068-.114.091-.5.568-.887,1.433-.887.887.023,1.387.432,1.387,1.228m-.955,1.229v-.341a4.614,4.614,0,0,0-.569.023c-.364.045-.546.159-.546.432,0,.25.159.387.432.387a.7.7,0,0,0,.683-.5m3.867-2.3v.683c0,.09-.023.114-.115.114h-.114a.814.814,0,0,0-.909.614V44.3a.084.084,0,0,1-.091.091h-.819a.084.084,0,0,1-.091-.091V40.931a.084.084,0,0,1,.091-.091h.728c.069,0,.091.046.091.114v.478a1.085,1.085,0,0,1,1.024-.614C602.775,40.795,602.8,40.817,602.8,40.908Zm1.933-.819v.774h.659c.068,0,.114.023.114.114v.568a.107.107,0,0,1-.114.114h-.659v1.57c0,.2.114.318.364.318h.3c.068,0,.114.023.114.091V44.3c0,.069-.045.091-.114.091h-.432c-.8,0-1.16-.432-1.16-1.046V41.636h-.41c-.068,0-.114-.023-.114-.114v-.569a.108.108,0,0,1,.114-.114h.432v-.773c0-.069.023-.091.091-.091h.75A.141.141,0,0,1,604.731,40.089Zm4.231,1.547a.1.1,0,0,1-.068.136l-.592.2a.1.1,0,0,1-.136-.068.588.588,0,0,0-.614-.387c-.3,0-.478.114-.478.3s.137.25.819.432c.8.2,1.115.546,1.115,1.115,0,.682-.569,1.137-1.433,1.137a1.447,1.447,0,0,1-1.524-.864c-.023-.069,0-.114.091-.159l.523-.251c.068-.045.114-.023.159.069a.705.705,0,0,0,.728.432c.364,0,.546-.114.546-.318,0-.182-.2-.3-.842-.455-.773-.2-1.114-.523-1.114-1.07,0-.682.546-1.114,1.387-1.114A1.417,1.417,0,0,1,608.962,41.636Zm6.073-1.843v4.5c0,.069-.023.091-.09.091h-.8a.1.1,0,0,1-.114-.091V42.5h-1.616v1.8c0,.069-.023.091-.09.091h-.819a.083.083,0,0,1-.091-.091v-4.5c0-.068.045-.09.114-.09h.8a.083.083,0,0,1,.09.09v1.8h1.616v-1.8c0-.068.045-.09.114-.09h.8a.083.083,0,0,1,.09.09m1.752,3.117v.136a.575.575,0,0,0,.637.638.634.634,0,0,0,.683-.387c.068-.091.091-.114.182-.069l.5.251c.114.045.114.114.068.2a1.486,1.486,0,0,1-1.433.773,1.4,1.4,0,0,1-1.57-1.433V42.2a1.379,1.379,0,0,1,1.57-1.433A1.349,1.349,0,0,1,618.9,42.2v.569c0,.091-.022.159-.159.159h-1.957Zm0-.751v.114h1.229V42.16a.614.614,0,0,0-1.229,0m4.936-1.251v.683c0,.09-.023.114-.114.114H621.5a.815.815,0,0,0-.91.614V44.3a.083.083,0,0,1-.09.091h-.819a.083.083,0,0,1-.091-.091V40.931a.084.084,0,0,1,.091-.091h.728c.068,0,.091.046.091.114v.478a1.084,1.084,0,0,1,1.023-.614C621.7,40.795,621.723,40.817,621.723,40.908Zm1.433,2v.136a.575.575,0,0,0,.637.638.634.634,0,0,0,.683-.387c.068-.091.09-.114.181-.069l.5.251c.114.045.114.114.069.2a1.487,1.487,0,0,1-1.433.773,1.4,1.4,0,0,1-1.57-1.433V42.2a1.379,1.379,0,0,1,1.57-1.433,1.349,1.349,0,0,1,1.479,1.433v.569c0,.091-.023.159-.159.159h-1.957Zm0-.751v.114h1.229V42.16a.562.562,0,0,0-.614-.614.573.573,0,0,0-.614.614" transform="translate(214.223 4724.387)" fill="#ededed"/>
    <path id="Path_39964" data-name="Path 39964" d="M521.8,29.638V21.425A14.173,14.173,0,0,0,507.624,7.254H492.543a.456.456,0,0,0-.455.455V29.638a14.173,14.173,0,0,0,14.171,14.171h1.365A14.2,14.2,0,0,0,521.8,29.638m-4.549.227c0,5.323-3.912,9.372-10.009,9.372-7.211,0-10.6-4.277-10.6-10.169v-7.12c0-5.869,3.366-10.168,10.6-10.168,5.846,0,8.485,3.344,9.531,6.665a.676.676,0,0,1-.432.933l-3.912,1.16c-.478.136-.728,0-.864-.478a4.035,4.035,0,0,0-4.323-3.093c-3.707,0-4.936,2.184-4.936,5.118v6.756c0,2.934,1.229,5.118,4.936,5.118,3.049,0,4.641-1.41,4.641-4.5v-.864h-4.072a.516.516,0,0,1-.546-.592v-3.73a.538.538,0,0,1,.546-.592h8.848c.364,0,.592.182.592.546Z" transform="translate(221.183 4726.309)" fill="#2e008a"/>
    <line id="Line_37" data-name="Line 37" y2="36.555" transform="translate(845.523 4733.54)" fill="none" stroke="#989898" stroke-width="2"/>
    <g id="Group_6175" data-name="Group 6175" transform="translate(853.439 4764.088)">
      <g id="Group_6174" data-name="Group 6174" clip-path="url(#clip-path)">
        <rect id="Rectangle_3642" data-name="Rectangle 3642" width="6.032" height="6.032" transform="matrix(0.707, -0.707, 0.707, 0.707, -2.366, 2.343)" fill="url(#linear-gradient)"/>
      </g>
    </g>
    <g id="Group_6177" data-name="Group 6177" transform="translate(857.92 4764.088)">
      <g id="Group_6176" data-name="Group 6176" clip-path="url(#clip-path-2)">
        <rect id="Rectangle_3643" data-name="Rectangle 3643" width="5.292" height="5.292" transform="translate(-2.354 2.355) rotate(-45)" fill="url(#linear-gradient-2)"/>
      </g>
    </g>
    <g id="Group_6179" data-name="Group 6179" transform="translate(861.188 4764.065)">
      <g id="Group_6178" data-name="Group 6178" clip-path="url(#clip-path-3)">
        <rect id="Rectangle_3644" data-name="Rectangle 3644" width="6.128" height="6.128" transform="translate(-2.369 2.355) rotate(-45)" fill="url(#linear-gradient-3)"/>
      </g>
    </g>
    <g id="Group_6181" data-name="Group 6181" transform="translate(865.791 4764.043)">
      <g id="Group_6180" data-name="Group 6180" clip-path="url(#clip-path-4)">
        <rect id="Rectangle_3645" data-name="Rectangle 3645" width="5.694" height="5.694" transform="translate(-2.366 2.366) rotate(-45)" fill="url(#linear-gradient-4)"/>
      </g>
    </g>
    <g id="Group_6183" data-name="Group 6183" transform="translate(869.673 4763.952)">
      <g id="Group_6182" data-name="Group 6182" clip-path="url(#clip-path-5)">
        <rect id="Rectangle_3646" data-name="Rectangle 3646" width="5.758" height="5.758" transform="translate(-2.46 2.446) rotate(-45)" fill="url(#linear-gradient-5)"/>
      </g>
    </g>
    <g id="Group_6185" data-name="Group 6185" transform="translate(850.988 4743.32)">
      <g id="Group_6184" data-name="Group 6184" clip-path="url(#clip-path-6)">
        <rect id="Rectangle_3647" data-name="Rectangle 3647" width="19.978" height="19.978" transform="translate(-8.411 8.383) rotate(-45)" fill="url(#linear-gradient-6)"/>
      </g>
    </g>
    <g id="Group_6187" data-name="Group 6187" transform="translate(863.869 4743.636)">
      <g id="Group_6186" data-name="Group 6186" clip-path="url(#clip-path-7)">
        <rect id="Rectangle_3648" data-name="Rectangle 3648" width="19.996" height="19.996" transform="translate(-8.441 8.384) rotate(-45)" fill="url(#linear-gradient-7)"/>
      </g>
    </g>
  </g>
</svg>
