<svg id="_Layer_" data-name="&lt;Layer&gt;" xmlns="http://www.w3.org/2000/svg" viewBox="0 0 2832.68 2568.43"><defs><style>.cls-1{fill:red;}</style></defs><path d="M711.09,1088l-156.25,37.08-49-198.62,271.45-76.8H964v933.52H711.09Z"/><path d="M1091.12,1527.6V1525c0-112.56,58.26-180.09,157.57-222.46-70.18-39.73-125.79-102-125.79-202.6v-2.65c0-147,140.36-256.88,348.25-256.88s349.57,109.9,349.57,256.88v2.65c0,100.64-55.61,162.87-127.12,202.6,94,43.69,158.9,105.93,158.9,219.81V1525c0,166.84-158.9,274.09-381.35,274.09S1091.12,1689.14,1091.12,1527.6Zm513.77-25.16v-2.65c0-60.91-54.29-102-133.74-102-78.13,0-133.74,41.05-133.74,102v2.65c0,55.61,47.67,104.61,133.74,104.61S1604.89,1558.05,1604.89,1502.44Zm-18.54-372.08v-2.65c0-51.64-43.7-98-115.2-98-70.18,0-113.88,46.35-113.88,98v2.65c0,58.26,45,102,113.88,102S1586.35,1188.62,1586.35,1130.36Z"/><path class="cls-1" d="M1284.21,2358.24c-592.24,0-1074-481.79-1074-1074s481.79-1074,1074-1074c394.46,0,739.9,213.7,926.64,531.45h238c-62.58-134.15-148.81-257.74-256.58-365.51C1949.75,133.57,1627.23,0,1284.21,0S618.67,133.57,376.12,376.12,0,941.19,0,1284.21s133.57,665.54,376.12,908.09,565.07,376.13,908.09,376.13,665.54-133.58,908.09-376.13a1288.37,1288.37,0,0,0,214.23-282.75H2156.94C1961.84,2181.06,1643.36,2358.24,1284.21,2358.24Z"/><path class="cls-1" d="M2832.68,1221.45H2566.92a1286.42,1286.42,0,0,0-42.22-271.59H2305a1067.75,1067.75,0,0,1,51.45,271.59H2072.17v208.24h276.18a1063.72,1063.72,0,0,1-74.44,271.63h225.57a1274,1274,0,0,0,60.79-271.63h272.41Z"/></svg>